<?xml version="1.0" encoding="UTF-8"?>
<!DOCTYPE svg PUBLIC "-//W3C//DTD SVG 1.1//EN" "http://www.w3.org/Graphics/SVG/1.1/DTD/svg11.dtd">
<svg version="1.2" width="152.5mm" height="35.22mm" viewBox="7224 8775 15250 3522" preserveAspectRatio="xMidYMid" fill-rule="evenodd" stroke-width="28.222" stroke-linejoin="round" xmlns="http://www.w3.org/2000/svg" xmlns:ooo="http://xml.openoffice.org/svg/export" xmlns:xlink="http://www.w3.org/1999/xlink" xmlns:presentation="http://sun.com/xmlns/staroffice/presentation" xmlns:smil="http://www.w3.org/2001/SMIL20/" xmlns:anim="urn:oasis:names:tc:opendocument:xmlns:animation:1.0" xmlns:svg="urn:oasis:names:tc:opendocument:xmlns:svg-compatible:1.0" xml:space="preserve">
 <defs class="EmbeddedBulletChars">
  <g id="bullet-char-template-57356" transform="scale(0.00048828125,-0.00048828125)">
   <path d="M 580,1141 L 1163,571 580,0 -4,571 580,1141 Z"/>
  </g>
  <g id="bullet-char-template-57354" transform="scale(0.00048828125,-0.00048828125)">
   <path d="M 8,1128 L 1137,1128 1137,0 8,0 8,1128 Z"/>
  </g>
  <g id="bullet-char-template-10146" transform="scale(0.00048828125,-0.00048828125)">
   <path d="M 174,0 L 602,739 174,1481 1456,739 174,0 Z M 1358,739 L 309,1346 659,739 1358,739 Z"/>
  </g>
  <g id="bullet-char-template-10132" transform="scale(0.00048828125,-0.00048828125)">
   <path d="M 2015,739 L 1276,0 717,0 1260,543 174,543 174,936 1260,936 717,1481 1274,1481 2015,739 Z"/>
  </g>
  <g id="bullet-char-template-10007" transform="scale(0.00048828125,-0.00048828125)">
   <path d="M 0,-2 C -7,14 -16,27 -25,37 L 356,567 C 262,823 215,952 215,954 215,979 228,992 255,992 264,992 276,990 289,987 310,991 331,999 354,1012 L 381,999 492,748 772,1049 836,1024 860,1049 C 881,1039 901,1025 922,1006 886,937 835,863 770,784 769,783 710,716 594,584 L 774,223 C 774,196 753,168 711,139 L 727,119 C 717,90 699,76 672,76 641,76 570,178 457,381 L 164,-76 C 142,-110 111,-127 72,-127 30,-127 9,-110 8,-76 1,-67 -2,-52 -2,-32 -2,-23 -1,-13 0,-2 Z"/>
  </g>
  <g id="bullet-char-template-10004" transform="scale(0.00048828125,-0.00048828125)">
   <path d="M 285,-33 C 182,-33 111,30 74,156 52,228 41,333 41,471 41,549 55,616 82,672 116,743 169,778 240,778 293,778 328,747 346,684 L 369,508 C 377,444 397,411 428,410 L 1163,1116 C 1174,1127 1196,1133 1229,1133 1271,1133 1292,1118 1292,1087 L 1292,965 C 1292,929 1282,901 1262,881 L 442,47 C 390,-6 338,-33 285,-33 Z"/>
  </g>
  <g id="bullet-char-template-9679" transform="scale(0.00048828125,-0.00048828125)">
   <path d="M 813,0 C 632,0 489,54 383,161 276,268 223,411 223,592 223,773 276,916 383,1023 489,1130 632,1184 813,1184 992,1184 1136,1130 1245,1023 1353,916 1407,772 1407,592 1407,412 1353,268 1245,161 1136,54 992,0 813,0 Z"/>
  </g>
  <g id="bullet-char-template-8226" transform="scale(0.00048828125,-0.00048828125)">
   <path d="M 346,457 C 273,457 209,483 155,535 101,586 74,649 74,723 74,796 101,859 155,911 209,963 273,989 346,989 419,989 480,963 531,910 582,859 608,796 608,723 608,648 583,586 532,535 482,483 420,457 346,457 Z"/>
  </g>
  <g id="bullet-char-template-8211" transform="scale(0.00048828125,-0.00048828125)">
   <path d="M -4,459 L 1135,459 1135,606 -4,606 -4,459 Z"/>
  </g>
  <g id="bullet-char-template-61548" transform="scale(0.00048828125,-0.00048828125)">
   <path d="M 173,740 C 173,903 231,1043 346,1159 462,1274 601,1332 765,1332 928,1332 1067,1274 1183,1159 1299,1043 1357,903 1357,740 1357,577 1299,437 1183,322 1067,206 928,148 765,148 601,148 462,206 346,322 231,437 173,577 173,740 Z"/>
  </g>
 </defs>
 <g class="Page">
  <g class="com.sun.star.drawing.ClosedBezierShape">
   <g id="id3">
    <rect class="BoundingBox" stroke="none" fill="none" x="7224" y="9730" width="3797" height="2534"/>
    <path fill="rgb(99,71,160)" stroke="none" d="M 7224,9764 C 7297,9748 7366,9738 7432,9735 7497,9732 7553,9730 7597,9730 7661,9730 7723,9732 7784,9735 7845,9738 7902,9746 7957,9759 L 8354,11591 8815,9759 C 8914,9740 9022,9730 9140,9730 9223,9734 9292,9737 9347,9740 9401,9743 9449,9750 9491,9759 L 9942,11557 10335,9759 C 10389,9750 10440,9742 10488,9738 10536,9733 10590,9730 10651,9730 10696,9730 10749,9732 10812,9735 10874,9738 10943,9748 11020,9764 L 10248,12238 C 10191,12247 10129,12254 10064,12257 9998,12260 9943,12262 9899,12262 9851,12262 9797,12260 9738,12257 9679,12254 9622,12246 9568,12233 L 9116,10593 8652,12238 C 8591,12247 8528,12254 8462,12257 8397,12260 8342,12262 8297,12262 8252,12262 8200,12260 8141,12257 8082,12254 8025,12246 7971,12233 L 7224,9764 Z"/>
   </g>
  </g>
  <g class="com.sun.star.drawing.ClosedBezierShape">
   <g id="id4">
    <rect class="BoundingBox" stroke="none" fill="none" x="10803" y="9702" width="2289" height="2595"/>
    <path fill="rgb(99,71,160)" stroke="none" d="M 12447,10732 C 12441,10579 12398,10455 12320,10361 12242,10266 12132,10219 11992,10219 11832,10219 11711,10264 11628,10353 11545,10443 11495,10569 11479,10732 L 12447,10732 Z M 11474,11206 C 11487,11398 11554,11537 11676,11623 11797,11711 11957,11754 12155,11754 12263,11754 12374,11743 12488,11723 12602,11702 12710,11672 12812,11633 12847,11698 12878,11775 12903,11864 12929,11953 12943,12049 12946,12152 12697,12247 12415,12295 12102,12295 11872,12295 11675,12263 11510,12199 11346,12136 11211,12047 11108,11933 11004,11820 10927,11685 10878,11528 10828,11371 10803,11200 10803,11015 10803,10833 10829,10662 10880,10502 10931,10342 11007,10203 11108,10085 11208,9967 11333,9873 11481,9805 11630,9736 11803,9702 12001,9702 12174,9702 12327,9732 12461,9793 12597,9853 12711,9937 12805,10042 12899,10147 12970,10273 13018,10418 13066,10564 13090,10719 13090,10885 13090,10946 13088,11006 13083,11065 13078,11124 13073,11171 13066,11206 L 11474,11206 Z"/>
   </g>
  </g>
  <g class="com.sun.star.drawing.ClosedBezierShape">
   <g id="id5">
    <rect class="BoundingBox" stroke="none" fill="none" x="13223" y="9151" width="1211" height="3117"/>
    <path fill="rgb(130,149,211)" stroke="none" d="M 13223,9180 C 13338,9161 13452,9151 13564,9151 13672,9151 13784,9161 13900,9180 L 13900,11251 C 13900,11350 13906,11430 13917,11490 13928,11551 13946,11598 13970,11632 13994,11665 14025,11688 14063,11701 14101,11714 14149,11720 14207,11720 14232,11720 14260,11719 14291,11715 14321,11712 14351,11707 14379,11701 14414,11832 14432,11960 14432,12084 L 14432,12154 C 14432,12175 14429,12198 14422,12223 14371,12239 14310,12250 14238,12257 14166,12263 14100,12267 14039,12267 13792,12267 13595,12199 13446,12063 13298,11927 13223,11706 13223,11399 L 13223,9180 Z"/>
   </g>
  </g>
  <g class="com.sun.star.drawing.ClosedBezierShape">
   <g id="id6">
    <rect class="BoundingBox" stroke="none" fill="none" x="14259" y="9701" width="2053" height="2595"/>
    <path fill="rgb(130,149,211)" stroke="none" d="M 15649,11101 C 15611,11095 15569,11089 15525,11084 15480,11079 15440,11077 15405,11077 15247,11077 15124,11105 15032,11161 14941,11217 14896,11307 14896,11432 14896,11515 14913,11579 14949,11623 14984,11669 15026,11702 15076,11723 15125,11743 15178,11756 15234,11761 15290,11766 15338,11768 15380,11768 15429,11768 15477,11764 15525,11756 15573,11748 15614,11741 15649,11735 L 15649,11101 Z M 15649,10607 C 15649,10531 15636,10468 15611,10421 15585,10373 15550,10335 15506,10308 15461,10281 15406,10262 15339,10253 15274,10243 15201,10238 15121,10238 14949,10238 14765,10272 14570,10339 14525,10256 14492,10178 14469,10104 14447,10031 14436,9943 14436,9841 14576,9793 14717,9758 14858,9735 14998,9713 15129,9702 15251,9702 15584,9702 15843,9782 16030,9941 16217,10101 16311,10357 16311,10708 L 16311,12147 C 16199,12182 16063,12215 15903,12247 15743,12279 15563,12295 15361,12295 15198,12295 15048,12281 14913,12252 14777,12223 14660,12176 14563,12108 14465,12041 14390,11955 14338,11850 14285,11744 14259,11614 14259,11460 14259,11307 14291,11179 14357,11075 14422,10971 14507,10888 14611,10825 14715,10763 14830,10718 14958,10691 15086,10664 15214,10651 15342,10651 15435,10651 15537,10655 15649,10665 L 15649,10607 Z"/>
   </g>
  </g>
  <g class="com.sun.star.drawing.ClosedBezierShape">
   <g id="id7">
    <rect class="BoundingBox" stroke="none" fill="none" x="16520" y="9150" width="2308" height="3146"/>
    <path fill="rgb(130,149,211)" stroke="none" d="M 17196,11701 C 17234,11714 17275,11722 17319,11725 17362,11728 17406,11730 17451,11730 17659,11730 17822,11669 17940,11548 18058,11426 18117,11236 18117,10976 18117,10746 18080,10571 18007,10452 17933,10332 17809,10272 17633,10272 17505,10272 17401,10314 17319,10399 17237,10484 17196,10617 17196,10799 L 17196,11701 Z M 16520,9180 C 16635,9161 16747,9151 16856,9151 16968,9151 17081,9161 17196,9180 L 17196,9999 C 17244,9913 17325,9841 17437,9786 17549,9730 17676,9702 17820,9702 17964,9702 18097,9727 18220,9778 18343,9830 18449,9907 18539,10011 18628,10115 18699,10245 18750,10401 18801,10558 18827,10743 18827,10957 18827,11166 18795,11352 18731,11517 18667,11681 18574,11821 18453,11936 18331,12051 18183,12140 18007,12202 17831,12264 17633,12295 17413,12295 17342,12295 17267,12292 17189,12286 17111,12279 17032,12271 16952,12259 16872,12248 16795,12234 16722,12216 16648,12199 16581,12179 16520,12156 L 16520,9180 Z"/>
   </g>
  </g>
  <g class="com.sun.star.drawing.ClosedBezierShape">
   <g id="id8">
    <rect class="BoundingBox" stroke="none" fill="none" x="21265" y="9151" width="1209" height="3117"/>
    <path fill="rgb(130,149,211)" stroke="none" d="M 21265,9180 C 21380,9161 21493,9151 21605,9151 21714,9151 21825,9161 21940,9180 L 21940,11251 C 21940,11350 21946,11430 21957,11490 21968,11551 21986,11598 22010,11632 22034,11665 22065,11688 22103,11701 22142,11714 22190,11720 22247,11720 22273,11720 22301,11719 22332,11715 22362,11712 22392,11707 22421,11701 22456,11832 22473,11960 22473,12084 L 22473,12154 C 22473,12175 22470,12198 22464,12223 22413,12239 22351,12250 22278,12257 22206,12263 22140,12267 22079,12267 21833,12267 21636,12199 21488,12063 21339,11927 21265,11706 21265,11399 L 21265,9180 Z"/>
   </g>
  </g>
  <g class="com.sun.star.drawing.ClosedBezierShape">
   <g id="id9">
    <rect class="BoundingBox" stroke="none" fill="none" x="18903" y="9703" width="2290" height="2594"/>
    <path fill="rgb(130,149,211)" stroke="none" d="M 21119,10418 C 21070,10273 20999,10147 20906,10042 20879,10012 20850,9984 20820,9958 20790,9931 20758,9906 20724,9884 20674,9849 20620,9819 20563,9793 20444,9739 20311,9709 20162,9703 20090,9879 20052,10036 20041,10163 20068,10162 20096,10165 20123,10171 20263,10206 20362,10332 20361,10477 20361,10492 20360,10507 20357,10522 20351,10566 20335,10607 20311,10644 20270,10710 20202,10760 20121,10780 20028,10803 19929,10782 19853,10722 19777,10662 19733,10571 19734,10475 19734,10378 19778,10288 19854,10229 19874,10213 19896,10200 19918,10190 19923,10101 19940,10003 19967,9905 19985,9837 20007,9769 20032,9703 19863,9711 19714,9744 19583,9805 19434,9874 19309,9967 19208,10085 19107,10203 19031,10342 18980,10502 18929,10662 18903,10832 18903,11015 18903,11200 18928,11371 18978,11527 19027,11685 19104,11820 19208,11933 19312,12047 19447,12136 19611,12200 19776,12263 19973,12295 20203,12295 20516,12295 20797,12247 21047,12151 21043,12050 21029,11953 21003,11864 20978,11774 20947,11698 20913,11633 20810,11672 20702,11702 20589,11723 20476,11743 20364,11754 20256,11754 20058,11754 19898,11711 19777,11623 19655,11537 19588,11398 19575,11206 L 21167,11206 C 21173,11172 21178,11125 21183,11065 21188,11006 21191,10946 21191,10885 21191,10719 21167,10563 21119,10418 Z"/>
   </g>
  </g>
  <g class="com.sun.star.drawing.ClosedBezierShape">
   <g id="id10">
    <rect class="BoundingBox" stroke="none" fill="none" x="19915" y="8775" width="1160" height="1788"/>
    <path fill="rgb(99,71,160)" stroke="none" d="M 20930,8797 C 20687,8676 20332,9069 20120,9499 20115,9509 20111,9518 20107,9527 20093,9555 20081,9582 20070,9609 20067,9616 20064,9623 20061,9630 20050,9654 20041,9679 20031,9703 20006,9769 19984,9838 19966,9906 19938,10009 19921,10111 19916,10204 19916,10209 19916,10214 19915,10220 19915,10273 19918,10324 19926,10368 19942,10446 19974,10509 20026,10548 20090,10597 20162,10501 20098,10452 20066,10428 20045,10374 20038,10299 20038,10297 20038,10296 20038,10294 20034,10260 20035,10220 20038,10177 20048,10049 20086,9886 20161,9703 20164,9694 20168,9685 20171,9676 20173,9673 20174,9669 20175,9666 20184,9646 20193,9626 20201,9606 20210,9588 20219,9570 20228,9552 20447,9107 20751,8844 20876,8904 21002,8966 20979,9368 20761,9812 20749,9838 20737,9861 20724,9885 20758,9907 20790,9932 20820,9959 20838,9926 20855,9894 20869,9866 21079,9437 21172,8917 20930,8797 Z"/>
   </g>
  </g>
 </g>
</svg>